<?xml version="1.0" encoding="utf-8"?>
<!-- Generator: Adobe Illustrator 21.1.0, SVG Export Plug-In . SVG Version: 6.00 Build 0)  -->
<svg version="1.1" id="Layer_1" xmlns="http://www.w3.org/2000/svg" xmlns:xlink="http://www.w3.org/1999/xlink" x="0px" y="0px"
	 viewBox="0 0 203 37" style="enable-background:new 0 0 203 37;" xml:space="preserve">
<style type="text/css">
	.st0{fill:#FFFFFF;}
	.st1{fill:#61DDE1;}
	.st2{fill:none;stroke:#000000;stroke-width:2;stroke-miterlimit:10;}
	.st3{fill:#000202;}
	.st4{fill:#666666;}
	.st5{fill:#FFFFFF;stroke:#3A579B;stroke-width:4.806;stroke-miterlimit:10;}
	.st6{fill:#61DDE1;stroke:#666666;stroke-width:2.7948;stroke-miterlimit:10;}
	.st7{fill:#FFFFFF;stroke:#666666;stroke-width:2.7948;stroke-miterlimit:10;}
	.st8{fill:#FFB94D;stroke:#666666;stroke-width:2.7948;stroke-miterlimit:10;}
	.st9{fill:#FFFFFF;stroke:#3A579B;stroke-width:2.7948;stroke-miterlimit:10;}
	.st10{fill:#737D91;stroke:#E9EAEE;stroke-width:2.7948;stroke-miterlimit:10;}
	.st11{fill:#737D91;}
	.st12{fill:#FFB94D;}
	.st13{fill:#FFFFFF;stroke:#1A1A1A;stroke-width:4;stroke-miterlimit:10;}
	.st14{fill:#61DDE1;stroke:#666666;stroke-width:0.75;stroke-miterlimit:10;}
	.st15{fill:#FFFFFF;stroke:#666666;stroke-width:0.75;stroke-miterlimit:10;}
	.st16{fill:#FFB94D;stroke:#666666;stroke-width:0.75;stroke-miterlimit:10;}
</style>
<g id="XMLID_680_">
	<g id="XMLID_712_">
		<path id="XMLID_729_" class="st14" d="M35.8,7.5l-5.7,5.7l-5.7-5.7l5.7-5.7L35.8,7.5z"/>
		<path id="XMLID_727_" class="st15" d="M30.2,13.2l-5.7,5.7l-5.7-5.7l5.7-5.7L30.2,13.2z"/>
		
			<rect id="XMLID_726_" x="14.8" y="14.9" transform="matrix(0.7071 -0.7071 0.7071 0.7071 -7.8258 18.8362)" class="st16" width="8" height="8"/>
		
			<rect id="XMLID_725_" x="9.2" y="20.5" transform="matrix(0.7071 -0.7071 0.7071 0.7071 -13.4902 16.4899)" class="st15" width="8" height="8"/>
		
			<rect id="XMLID_724_" x="31.8" y="9.2" transform="matrix(0.7071 -0.7071 0.7071 0.7071 1.1568 29.1932)" class="st15" width="8" height="8"/>
		
			<rect id="XMLID_723_" x="26.1" y="14.9" transform="matrix(0.7071 -0.7071 0.7071 0.7071 -4.5076 26.8469)" class="st16" width="8" height="8"/>
		
			<rect id="XMLID_722_" x="20.5" y="20.5" transform="matrix(0.7071 -0.7071 0.7071 0.7071 -10.1721 24.5006)" class="st15" width="8" height="8"/>
		
			<rect id="XMLID_721_" x="37.5" y="14.9" transform="matrix(0.7071 -0.7071 0.7071 0.7071 -1.1895 34.8576)" class="st16" width="8" height="8"/>
		
			<rect id="XMLID_720_" x="31.8" y="20.5" transform="matrix(0.7071 -0.7071 0.7071 0.7071 -6.8539 32.5113)" class="st15" width="8" height="8"/>
		
			<rect id="XMLID_719_" x="43.1" y="20.5" transform="matrix(0.7071 -0.7071 0.7071 0.7071 -3.5358 40.522)" class="st15" width="8" height="8"/>
		<path id="XMLID_717_" class="st14" d="M58.5,30.2l-5.7,5.7l-5.7-5.7l5.7-5.7L58.5,30.2z"/>
		
			<rect id="XMLID_716_" x="37.5" y="26.2" transform="matrix(0.7071 -0.7071 0.7071 0.7071 -9.2002 38.1757)" class="st14" width="8" height="8"/>
		
			<rect id="XMLID_715_" x="26.1" y="26.2" transform="matrix(0.7071 -0.7071 0.7071 0.7071 -12.5183 30.165)" class="st14" width="8" height="8"/>
		
			<rect id="XMLID_714_" x="14.8" y="26.2" transform="matrix(0.7071 -0.7071 0.7071 0.7071 -15.8365 22.1543)" class="st14" width="8" height="8"/>
		
			<rect id="XMLID_713_" x="3.5" y="26.2" transform="matrix(0.7071 -0.7071 0.7071 0.7071 -19.1546 14.1437)" class="st14" width="8" height="8"/>
	</g>
	<g id="XMLID_681_">
		<path id="XMLID_710_" class="st4" d="M65.5,34.3V15.5c0-0.4,0.2-0.7,0.6-0.9c0.4-0.2,0.8-0.3,1.3-0.3c0.5,0,1,0.1,1.3,0.3
			c0.4,0.2,0.6,0.5,0.6,0.9v18.9c0,0.4-0.2,0.7-0.6,0.9c-0.4,0.2-0.8,0.3-1.3,0.3c-0.5,0-1-0.1-1.3-0.3C65.7,35,65.5,34.7,65.5,34.3
			z"/>
		<path id="XMLID_708_" class="st4" d="M72.2,34.3V22.9c0-0.3,0.2-0.6,0.5-0.8c0.3-0.2,0.8-0.3,1.3-0.3c0.5,0,0.9,0.1,1.2,0.3
			c0.3,0.2,0.5,0.5,0.5,0.8v0.9c0.3-0.6,0.8-1.2,1.5-1.6c0.7-0.4,1.5-0.6,2.4-0.6c1.3,0,2.5,0.6,3.5,1.7c1,1.2,1.5,2.5,1.5,4.1v6.9
			c0,0.4-0.2,0.7-0.6,0.9c-0.4,0.2-0.8,0.3-1.3,0.3c-0.5,0-0.9-0.1-1.3-0.3c-0.4-0.2-0.6-0.5-0.6-0.9v-6.9c0-0.7-0.3-1.3-0.8-1.8
			c-0.5-0.5-1.1-0.8-1.8-0.8c-0.6,0-1.2,0.2-1.7,0.7c-0.5,0.5-0.7,1.1-0.7,1.9v6.9c0,0.3-0.2,0.6-0.6,0.8c-0.4,0.3-0.8,0.4-1.3,0.4
			c-0.5,0-1-0.1-1.3-0.4C72.4,34.9,72.2,34.7,72.2,34.3z"/>
		<path id="XMLID_706_" class="st4" d="M87,30.9V17c0-0.3,0.2-0.6,0.6-0.8c0.4-0.2,0.8-0.3,1.3-0.3c0.5,0,0.9,0.1,1.3,0.3
			c0.4,0.2,0.6,0.5,0.6,0.8v4.8h3.4c0.3,0,0.5,0.1,0.7,0.4c0.2,0.3,0.3,0.6,0.3,1c0,0.4-0.1,0.7-0.3,1c-0.2,0.3-0.4,0.4-0.7,0.4
			h-3.4v6c0,0.5,0.1,0.9,0.4,1.1c0.2,0.2,0.7,0.3,1.3,0.3h1.1c0.5,0,0.9,0.2,1.2,0.5c0.3,0.3,0.4,0.7,0.4,1.2c0,0.5-0.1,0.9-0.4,1.2
			c-0.3,0.3-0.7,0.5-1.2,0.5h-1.1C88.8,35.5,87,34,87,30.9z"/>
		<path id="XMLID_703_" class="st4" d="M96.2,29.9v-2.5c0-1.6,0.6-2.9,1.9-4.1c1.2-1.1,2.7-1.7,4.5-1.7c1.6,0,3,0.5,4.2,1.6
			c1.2,1,1.8,2.3,1.8,3.9c0,0.6-0.1,1-0.2,1.4c-0.1,0.4-0.4,0.6-0.7,0.8c-0.3,0.2-0.6,0.2-0.8,0.3c-0.3,0-0.6,0.1-1,0.1h-5.9v0.4
			c0,0.8,0.3,1.5,0.9,2c0.6,0.5,1.4,0.8,2.5,0.8c0.7,0,1.5-0.2,2.2-0.6c0.7-0.4,1.2-0.6,1.4-0.6c0.4,0,0.7,0.2,1,0.6
			c0.3,0.4,0.4,0.7,0.4,1.1c0,0.5-0.5,1.1-1.5,1.6c-1,0.5-2.2,0.8-3.6,0.8c-2.1,0-3.8-0.5-5.1-1.6C96.8,33.1,96.2,31.6,96.2,29.9z
			 M99.9,27.4h4.2c0.3,0,0.5,0,0.7-0.1c0.1-0.1,0.2-0.3,0.2-0.6c0-0.6-0.2-1.1-0.7-1.5c-0.5-0.4-1.1-0.6-1.8-0.6
			c-0.7,0-1.3,0.2-1.8,0.6c-0.5,0.4-0.8,0.9-0.8,1.5V27.4z"/>
		<path id="XMLID_701_" class="st4" d="M110.4,34.3V22.9c0-0.3,0.2-0.6,0.5-0.8c0.3-0.2,0.8-0.3,1.3-0.3c0.5,0,0.9,0.1,1.2,0.3
			c0.3,0.2,0.5,0.5,0.5,0.8v1.2c0.3-0.7,0.8-1.3,1.4-1.8c0.7-0.5,1.4-0.8,2.1-0.8h0.9c0.3,0,0.7,0.2,0.9,0.5
			c0.3,0.3,0.4,0.7,0.4,1.1c0,0.4-0.1,0.8-0.4,1.2c-0.3,0.3-0.6,0.5-0.9,0.5h-0.9c-0.9,0-1.7,0.4-2.3,1.2c-0.7,0.8-1,1.8-1,3.1v5.2
			c0,0.3-0.2,0.6-0.6,0.8c-0.4,0.3-0.8,0.4-1.3,0.4c-0.5,0-1-0.1-1.3-0.4C110.6,34.9,110.4,34.7,110.4,34.3z"/>
		<path id="XMLID_699_" class="st4" d="M119.8,23.2c0-0.4,0.3-0.8,0.9-1.1c0.6-0.3,1.1-0.5,1.6-0.5c0.6,0,0.9,0.2,1.1,0.6l3.2,8.4
			l3.2-8.4c0.2-0.5,0.5-0.7,1.1-0.7c0.5,0,1,0.2,1.6,0.5c0.6,0.3,0.9,0.7,0.9,1.1c0,0.2,0,0.3-0.1,0.5l-5,11.5
			c-0.2,0.4-0.8,0.7-1.7,0.7s-1.5-0.2-1.7-0.7l-5-11.5C119.9,23.6,119.8,23.4,119.8,23.2z"/>
		<path id="XMLID_696_" class="st4" d="M134.5,17c0-0.5,0.2-0.8,0.6-1.2c0.4-0.3,0.9-0.5,1.5-0.5c0.5,0,1,0.2,1.4,0.5
			c0.4,0.3,0.6,0.7,0.6,1.2c0,0.4-0.2,0.8-0.6,1.2c-0.4,0.3-0.8,0.5-1.4,0.5c-0.6,0-1.1-0.2-1.5-0.5C134.8,17.9,134.5,17.5,134.5,17
			z M134.9,34.3V22.9c0-0.3,0.2-0.6,0.5-0.8c0.3-0.2,0.8-0.3,1.3-0.3c0.5,0,1,0.1,1.3,0.3c0.3,0.2,0.5,0.5,0.5,0.8v11.4
			c0,0.3-0.2,0.6-0.5,0.8c-0.4,0.3-0.8,0.4-1.3,0.4c-0.5,0-0.9-0.1-1.3-0.4C135.1,34.9,134.9,34.7,134.9,34.3z"/>
		<path id="XMLID_693_" class="st4" d="M140.6,29.9v-2.5c0-1.6,0.6-2.9,1.9-4.1c1.2-1.1,2.7-1.7,4.5-1.7c1.6,0,3,0.5,4.2,1.6
			c1.2,1,1.8,2.3,1.8,3.9c0,0.6-0.1,1-0.2,1.4c-0.1,0.4-0.4,0.6-0.7,0.8c-0.3,0.2-0.6,0.2-0.8,0.3c-0.3,0-0.6,0.1-1,0.1h-5.9v0.4
			c0,0.8,0.3,1.5,0.9,2c0.6,0.5,1.4,0.8,2.5,0.8c0.7,0,1.5-0.2,2.2-0.6c0.7-0.4,1.2-0.6,1.4-0.6c0.4,0,0.7,0.2,1,0.6
			c0.3,0.4,0.4,0.7,0.4,1.1c0,0.5-0.5,1.1-1.5,1.6c-1,0.5-2.2,0.8-3.6,0.8c-2.1,0-3.8-0.5-5.1-1.6C141.2,33.1,140.6,31.6,140.6,29.9
			z M144.3,27.4h4.2c0.3,0,0.5,0,0.7-0.1c0.1-0.1,0.2-0.3,0.2-0.6c0-0.6-0.2-1.1-0.7-1.5c-0.5-0.4-1.1-0.6-1.8-0.6
			c-0.7,0-1.3,0.2-1.8,0.6c-0.5,0.4-0.8,0.9-0.8,1.5V27.4z"/>
		<path id="XMLID_691_" class="st4" d="M153.6,23.2c0-0.4,0.3-0.8,0.8-1.1c0.5-0.3,1.1-0.4,1.6-0.4c0.6,0,0.9,0.2,1.1,0.6l2.9,8.2
			l2.2-7.2c0.2-0.5,0.6-0.8,1.3-0.8s1.1,0.3,1.3,0.8l2.1,7.2l2.9-8.3c0.2-0.4,0.5-0.6,1.1-0.6c0.5,0,1.1,0.2,1.6,0.5
			c0.5,0.3,0.8,0.7,0.8,1.1c0,0.2,0,0.4-0.1,0.5l-4.5,11.5c-0.2,0.4-0.7,0.7-1.5,0.7c-0.9,0-1.4-0.2-1.5-0.7l-2.2-6.3l-2.2,6.3
			c-0.2,0.5-0.7,0.7-1.6,0.7c-0.8,0-1.3-0.2-1.5-0.7l-4.5-11.5C153.6,23.5,153.6,23.3,153.6,23.2z"/>
		<path id="XMLID_687_" class="st4" d="M175.4,34.8V15.1c0-0.2,0.1-0.4,0.3-0.5c0.2-0.1,0.4-0.2,0.6-0.2h4.8c0.9,0,1.7,0.1,2.3,0.2
			c0.7,0.1,1.3,0.4,1.8,0.7c0.6,0.3,1,0.9,1.3,1.5c0.3,0.7,0.4,1.5,0.4,2.5c0,1.2-0.2,2.2-0.7,3c-0.4,0.8-1,1.4-1.8,1.7
			c1,0.4,1.7,1,2.2,1.7c0.5,0.8,0.8,1.9,0.8,3.2v0.5c0,2.1-0.5,3.6-1.6,4.6c-1,0.9-2.4,1.4-4.2,1.4h-5.5c-0.3,0-0.5-0.1-0.6-0.2
			C175.5,35.2,175.4,35,175.4,34.8z M177.3,23.2h3.8c1.4,0,2.4-0.3,3-0.9c0.6-0.6,0.9-1.5,0.9-2.9c0-1.3-0.3-2.1-1-2.6
			c-0.7-0.5-1.7-0.7-3-0.7h-3.7V23.2z M177.3,33.8h4.2c2.7,0,4.1-1.4,4.1-4.3V29c0-2.7-1.4-4.1-4.1-4.1h-4.2V33.8z"/>
		<path id="XMLID_684_" class="st4" d="M190.3,17.4c-0.3-0.2-0.4-0.5-0.4-0.9c0-0.3,0.1-0.6,0.4-0.8c0.3-0.2,0.6-0.3,0.9-0.3
			c0.3,0,0.6,0.1,0.9,0.3c0.2,0.2,0.4,0.5,0.4,0.8c0,0.3-0.1,0.6-0.4,0.9c-0.2,0.2-0.5,0.4-0.9,0.4
			C190.9,17.8,190.6,17.6,190.3,17.4z M190.3,34.8V22.5c0-0.2,0.1-0.4,0.3-0.5c0.2-0.1,0.4-0.2,0.7-0.2c0.3,0,0.5,0.1,0.7,0.2
			c0.2,0.1,0.3,0.3,0.3,0.5v12.3c0,0.2-0.1,0.4-0.3,0.5c-0.2,0.2-0.4,0.2-0.7,0.2c-0.3,0-0.5-0.1-0.7-0.2
			C190.4,35.2,190.3,35,190.3,34.8z"/>
		<path id="XMLID_682_" class="st4" d="M195.5,31.3V16c0-0.2,0.1-0.4,0.3-0.5c0.2-0.1,0.4-0.2,0.6-0.2c0.3,0,0.5,0.1,0.7,0.2
			c0.2,0.1,0.3,0.3,0.3,0.5v5.8h3.7c0.2,0,0.4,0.1,0.5,0.2c0.1,0.2,0.2,0.3,0.2,0.6c0,0.2-0.1,0.4-0.2,0.6c-0.1,0.2-0.3,0.2-0.5,0.2
			h-3.7v7.8c0,0.9,0.2,1.6,0.6,2c0.4,0.4,1.1,0.6,2.1,0.6h0.8c0.3,0,0.5,0.1,0.6,0.3c0.2,0.2,0.2,0.4,0.2,0.6c0,0.2-0.1,0.4-0.2,0.6
			c-0.2,0.2-0.4,0.3-0.6,0.3h-0.8C197.1,35.5,195.5,34.1,195.5,31.3z"/>
	</g>
</g>
</svg>
